<?xml version="1.0" encoding="UTF-8" standalone="no"?>
<!-- Created with Inkscape (http://www.inkscape.org/) -->

<svg
   xmlns:dc="http://purl.org/dc/elements/1.1/"
   xmlns:cc="http://creativecommons.org/ns#"
   xmlns:rdf="http://www.w3.org/1999/02/22-rdf-syntax-ns#"
   xmlns:svg="http://www.w3.org/2000/svg"
   xmlns="http://www.w3.org/2000/svg"
   xmlns:xlink="http://www.w3.org/1999/xlink"
   xmlns:sodipodi="http://sodipodi.sourceforge.net/DTD/sodipodi-0.dtd"
   xmlns:inkscape="http://www.inkscape.org/namespaces/inkscape"
   version="1.1"
   width="500"
   height="500"
   id="svg2"
   inkscape:version="0.48.4 r9939"
   sodipodi:docname="logo.svg">
  <sodipodi:namedview
     pagecolor="#888888"
     bordercolor="#666666"
     borderopacity="1"
     objecttolerance="10"
     gridtolerance="10"
     guidetolerance="10"
     inkscape:pageopacity="1"
     inkscape:pageshadow="2"
     inkscape:window-width="959"
     inkscape:window-height="1053"
     id="namedview48"
     showgrid="false"
     inkscape:zoom="0.472"
     inkscape:cx="4.2116174"
     inkscape:cy="378.65978"
     inkscape:window-x="960"
     inkscape:window-y="27"
     inkscape:window-maximized="0"
     inkscape:current-layer="svg2" />
  <title
     id="title4451">Logo</title>
  <metadata
     id="metadata10">
    <rdf:RDF>
      <cc:Work
         rdf:about="">
        <dc:format>image/svg+xml</dc:format>
        <dc:type
           rdf:resource="http://purl.org/dc/dcmitype/StillImage" />
        <dc:title>Logo</dc:title>
      </cc:Work>
    </rdf:RDF>
  </metadata>
  <defs
     id="defs8">
    <filter
       color-interpolation-filters="sRGB"
       id="filter3820">
      <feBlend
         in2="BackgroundImage"
         mode="darken"
         id="feBlend3822" />
    </filter>
    <path
       d="m 407.52634,249.93644 c 0,89.34368 -71.23836,161.77103 -159.11533,161.77103 -87.87697,0 -159.115334,-72.42735 -159.115334,-161.77103 0,-89.34368 71.238364,-161.771046 159.115334,-161.771046 87.87697,0 159.11533,72.427366 159.11533,161.771046 z"
       id="circle4-1-4-6"
       style="fill:none;stroke:#000000;stroke-width:2.08940649;stroke-miterlimit:4;stroke-opacity:1;display:inline" />
    <path
       d="m 407.52634,249.93644 c 0,89.34368 -71.23836,161.77103 -159.11533,161.77103 -87.87697,0 -159.115334,-72.42735 -159.115334,-161.77103 0,-89.34368 71.238364,-161.771046 159.115334,-161.771046 87.87697,0 159.11533,72.427366 159.11533,161.771046 z"
       id="circle4-1-4-5"
       style="fill:none;stroke:#000000;stroke-width:2.08940649;stroke-miterlimit:4;stroke-opacity:1;display:inline" />
    <path
       d="m 407.52634,249.93644 c 0,89.34368 -71.23836,161.77103 -159.11533,161.77103 -87.87697,0 -159.115334,-72.42735 -159.115334,-161.77103 0,-89.34368 71.238364,-161.771046 159.115334,-161.771046 87.87697,0 159.11533,72.427366 159.11533,161.771046 z"
       id="circle4-1-4-9"
       style="fill:none;stroke:#000000;stroke-width:2.08940649;stroke-miterlimit:4;stroke-opacity:1;display:inline" />
    <filter
       id="filter3044"
       inkscape:menu-tooltip="Make the lightest parts of the object progressively transparent"
       inkscape:menu="Transparency utilities"
       inkscape:label="Light eraser"
       height="1"
       width="1"
       y="0"
       x="0"
       color-interpolation-filters="sRGB">
      <feColorMatrix
         id="feColorMatrix3046"
         result="result14"
         type="luminanceToAlpha"
         in="SourceGraphic" />
      <feComposite
         id="feComposite3048"
         in2="result14"
         in="SourceGraphic"
         result="fbSourceGraphic"
         operator="out" />
      <feBlend
         id="feBlend3050"
         in2="fbSourceGraphic"
         mode="normal"
         result="result15" />
    </filter>
  </defs>
  <g
     id="layer1"
     style="display:inline;filter:url(#filter3820)" />
  <g
     id="layer3"
     style="display:inline;opacity:1;fill:none">
    <circle
       cx="250"
       cy="250"
       r="210"
       transform="translate(-2.1186153,-4.2372885)"
       id="circle4-9"
       style="fill:none;stroke:#000000;stroke-width:2;stroke-miterlimit:4;stroke-dasharray:none" />
  </g>
  <g
     id="layer2"
     style="display:inline;opacity:1;fill:none">
    <circle
       cx="250"
       cy="250"
       r="210"
       transform="matrix(0.67526412,0,0,0.67758739,80.124647,77.425184)"
       id="circle4-1"
       style="fill:none;stroke:#000000;stroke-width:2.73410415999999978;stroke-miterlimit:4;stroke-dasharray:none" />
  </g>
  <g
     id="layer4"
     style="display:inline">
    <g
       transform="matrix(2.565,0,0,2.565,-391.5379,-318.02572)"
       id="g3985">
      <path
         d="m 208.98601,240.07833 c 82.39592,0 82.39592,0 82.39592,0"
         id="path3934"
         style="fill:none;stroke:#000000;stroke-width:1px;stroke-linecap:butt;stroke-linejoin:miter;stroke-opacity:1" />
      <path
         d="m 209.39017,239.95574 c 41.19796,-71.35696 41.19796,-70.60791 41.19796,-70.60791"
         id="path3934-2"
         style="fill:none;stroke:#000000;stroke-width:1px;stroke-linecap:butt;stroke-linejoin:miter;stroke-opacity:1;display:inline" />
      <path
         d="M 290.92891,239.81736 C 249.73095,168.4604 250.38637,169.67762 250.38637,169.67762"
         id="path3934-2-5"
         style="fill:none;stroke:#000000;stroke-width:1px;stroke-linecap:butt;stroke-linejoin:miter;stroke-opacity:1;display:inline" />
      <path
         d="m 208.98601,189.34751 c 82.39592,0 82.39592,0 82.39592,0"
         id="path3979"
         style="fill:none;stroke:#000000;stroke-width:1px;stroke-linecap:butt;stroke-linejoin:miter;stroke-opacity:1" />
      <path
         d="m 209.39017,189.4701 c 41.19796,71.35696 41.19796,70.60791 41.19796,70.60791"
         id="path3981"
         style="fill:none;stroke:#000000;stroke-width:1px;stroke-linecap:butt;stroke-linejoin:miter;stroke-opacity:1;display:inline" />
      <path
         d="m 290.92891,189.60848 c -41.19796,71.35696 -40.54254,70.13974 -40.54254,70.13974"
         id="path3983"
         style="fill:none;stroke:#000000;stroke-width:1px;stroke-linecap:butt;stroke-linejoin:miter;stroke-opacity:1;display:inline" />
    </g>
  </g>
  <g
     id="layer5"
     style="display:inline;fill:none">
    <g
       transform="matrix(0.15805625,0,0,0.15805625,198.49688,189.9131)"
       id="g7"
       style="stroke-width:13.22314071999999996;stroke-miterlimit:4;stroke-dasharray:none;fill:none">
      <title
         id="title9">Layer 1</title>
      <path
         d="m 50.871342,65.611977 c 46.080975,0 136.801648,-34.606106 182.882108,-34.606106 46.08053,0 80.14902,15.359089 91.60098,36.606106 20.11933,-37.327307 76.5802,-36.606106 101.36136,-36.606106 88.8992,0 95.39609,34.606106 177.12161,34.606106 0,136.253913 0,272.507653 0,408.762133 -111.36435,0 -143.49328,-16.86737 -167.24746,-16.86737 -22.8704,0 -41.45298,-8.20294 -78.74738,16.2432 l -30.48813,0.62417 -30.51449,0.26093 c -10.06852,-19.06986 -54.46181,-17.89945 -75.78235,-17.89945 -46.07042,0 -103.7406,17.63852 -170.186247,17.63852 0,-136.25448 0,-272.50822 0,-408.762134 z"
         id="path4995"
         style="fill:none;stroke:#000000;stroke-width:13.22314071999999996;stroke-linejoin:round;stroke-miterlimit:4;stroke-dasharray:none;stroke-dashoffset:0" />
      <path
         d="M 61.940399,64.145203 C 105.842,64.145203 193.289,31.459 237.192,31.459 c 58.09001,3.923901 63.382,13.8088 91.23201,35.5718 19.16898,-34.1166 48.92099,-34.629101 94.66699,-35.5336 84.69699,0 87.672,27.7715 167.56201,33.657501 0,124.533299 -0.872,262.114309 -0.872,386.647299 -49.633,3.03699 -235.79001,-85.793 -263.46402,16.62 -20.26398,-94.88901 -176.75899,-10.133 -264.363091,-13.62 0,-124.53299 -0.0135,-266.12401 -0.0135,-390.656797 l 0,0 z"
         id="rect4989"
         style="fill:none;stroke:#000000;stroke-width:13.22314071999999996;stroke-linejoin:round;stroke-miterlimit:4;stroke-dasharray:none;stroke-dashoffset:0" />
      <path
         d="m 326.37176,68.323967 0.0792,402.779643"
         id="path4997"
         style="fill:none;stroke:#000000;stroke-width:13.22314071999999996;stroke-linejoin:round;stroke-miterlimit:4;stroke-dasharray:none;stroke-dashoffset:0" />
    </g>
    <text
       x="217.16103"
       y="361.22882"
       id="text4016"
       xml:space="preserve"
       style="font-size:40px;font-style:normal;font-weight:normal;line-height:125%;letter-spacing:0px;word-spacing:0px;fill:none;fill-opacity:1;stroke:none;font-family:Sans"><tspan
         x="217.16103"
         y="361.22882"
         id="tspan4018"
         style="fill:none" /></text>
  </g>
  <g
     id="layer6"
     style="display:inline">
    <text
       x="207.08467"
       y="376.91483"
       id="text4021"
       xml:space="preserve"
       style="font-size:34.29499817px;font-style:normal;font-weight:normal;line-height:125%;letter-spacing:0px;word-spacing:0px;fill:#000000;fill-opacity:1;stroke:none;font-family:Sans"><tspan
         x="207.08467"
         y="376.91483"
         id="tspan4023">2057</tspan></text>
  </g>
  <g
     id="layer7"
     style="display:inline;filter:url(#filter3044)">
    <path
       d="m 407.52634,249.93644 c 0,89.34368 -71.23836,161.77103 -159.11533,161.77103 -87.87697,0 -159.115334,-72.42735 -159.115334,-161.77103 0,-89.34368 71.238364,-161.771046 159.115334,-161.771046 87.87697,0 159.11533,72.427366 159.11533,161.771046 z"
       id="circle4-1-4"
       style="fill:none;stroke:none;display:inline" />
    <text
       transform="matrix(-0.99177131,-0.12802201,0.12802201,-0.99177131,460.11806,524.54834)"
       id="text4064"
       xml:space="preserve"
       style="font-size:40px;font-style:normal;font-weight:normal;line-height:125%;letter-spacing:0px;word-spacing:0px;fill:#000000;fill-opacity:1;stroke:none;font-family:Sans"><textPath
         dx="5"
         xlink:href="#circle4-1-4"
         id="textPath4072"
         style="font-weight:bold;letter-spacing:5px;word-spacing:5px">Devchuli College</textPath></text>
  </g>
  <g
     id="layer8"
     style="display:inline">
    <path
       d="m 447.23637,248.19915 c 0,-112.30479 -89.54643,-203.34577 -200.00755,-203.34577 -110.46113,0 -200.007565,91.04098 -200.007565,203.34577 0,112.30476 89.546435,203.34578 200.007565,203.34578 110.46112,0 200.00755,-91.04102 200.00755,-203.34578 z"
       id="circle4-1-4-54"
       style="fill:none;stroke:none;display:inline" />
    <text
       transform="matrix(-0.98316527,0.1827186,-0.1827186,-0.98316527,536.94333,432.08175)"
       id="text4175"
       xml:space="preserve"
       style="font-size:40px;font-style:normal;font-weight:normal;line-height:125%;letter-spacing:0px;word-spacing:0px;fill:#000000;fill-opacity:1;stroke:none;font-family:Sans"><textPath
         dx="5"
         xlink:href="#circle4-1-4-54"
         id="textPath4179"
         style="font-size:37px;font-weight:bold;line-height:125%;letter-spacing:5px;word-spacing:5px">Razahar, Nawalparasi</textPath></text>
  </g>
  <g
     id="layer13"
     style="display:inline">
    <path
       d="m 81.307994,239.07732 q 0,0.38842 -0.459042,0.84747 l -6.408935,6.25003 1.51837,8.82773 q 0.01766,0.12359 0.01766,0.35311 0,0.37077 -0.185382,0.62677 -0.185382,0.25601 -0.538492,0.25601 -0.335453,0 -0.706219,-0.21187 l -7.927305,-4.16669 -7.927306,4.16669 q -0.38842,0.21187 -0.706218,0.21187 -0.370765,0 -0.556147,-0.25601 -0.185383,-0.256 -0.185383,-0.62677 0,-0.10592 0.03532,-0.35311 l 1.51837,-8.82773 -6.426591,-6.25003 q -0.441386,-0.47671 -0.441386,-0.84747 0,-0.65326 0.988706,-0.81215 l 8.863046,-1.28885 3.97248,-8.03324 q 0.335454,-0.72387 0.865118,-0.72387 0.529664,0 0.865117,0.72387 l 3.972481,8.03324 8.863045,1.28885 q 0.988706,0.15889 0.988706,0.81215 z"
       id="path4" />
    <path
       d="m 439.0792,243.17053 q 0,0.38842 -0.4591,0.84747 l -6.4089,6.25003 1.5184,8.82773 q 0.018,0.12359 0.018,0.35311 0,0.37077 -0.1854,0.62677 -0.1853,0.25601 -0.5385,0.25601 -0.3354,0 -0.7062,-0.21187 l -7.9273,-4.16669 -7.9273,4.16669 q -0.3884,0.21187 -0.7062,0.21187 -0.3708,0 -0.5561,-0.25601 -0.1854,-0.256 -0.1854,-0.62677 0,-0.10592 0.035,-0.35311 l 1.5184,-8.82773 -6.4266,-6.25003 q -0.4414,-0.47671 -0.4414,-0.84747 0,-0.65326 0.9887,-0.81215 l 8.863,-1.28885 3.9725,-8.03324 q 0.3355,-0.72387 0.8651,-0.72387 0.5297,0 0.8651,0.72387 l 3.9725,8.03324 8.8631,1.28885 q 0.9887,0.15889 0.9887,0.81215 z"
       id="path4-2" />
  </g>
  <g
     id="layer9"
     style="display:none">
    <path
       d="m 407.03906,247.25423 c 0,-89.34368 -71.23836,-161.771031 -159.11533,-161.771031 -87.87697,0 -159.11533,72.427351 -159.11533,161.771031 0,89.34368 71.23836,161.77105 159.11533,161.77105 87.87697,0 159.11533,-72.42737 159.11533,-161.77105 z"
       id="circle4-1-4-54-1"
       style="fill:none;stroke:#000000;stroke-width:2.08940649;stroke-miterlimit:4;stroke-opacity:1;display:inline" />
  </g>
</svg>
